<?xml version="1.0" standalone="no"?>
<!DOCTYPE svg PUBLIC "-//W3C//DTD SVG 20010904//EN"
 "http://www.w3.org/TR/2001/REC-SVG-20010904/DTD/svg10.dtd">
<svg version="1.0" xmlns="http://www.w3.org/2000/svg"
 width="700.000000pt" height="700.000000pt" viewBox="0 0 700.000000 700.000000"
 preserveAspectRatio="xMidYMid meet">
<metadata>
Created by potrace 1.14, written by Peter Selinger 2001-2017
</metadata>
<g transform="translate(0.000000,700.000000) scale(0.100000,-0.100000)"
fill="#000000" stroke="none">
<path d="M3478 6566 c-1 -2 -52 -6 -113 -9 -60 -4 -139 -11 -175 -17 -36 -6
-78 -13 -95 -16 -150 -25 -367 -99 -542 -185 -538 -264 -943 -748 -1107 -1321
-29 -101 -63 -269 -73 -366 -10 -87 -9 -398 0 -482 6 -53 48 -272 61 -315 1
-5 8 -30 15 -55 53 -187 158 -388 330 -630 190 -267 351 -558 394 -710 20 -70
64 -289 72 -355 3 -27 8 -63 10 -80 5 -32 15 -144 20 -235 2 -30 4 -57 4 -60
2 -8 376 -6 381 2 12 16 -8 293 -30 428 -5 30 -12 78 -16 105 -3 28 -8 53 -10
56 -2 3 -6 21 -9 40 -30 171 -77 311 -155 469 -112 224 -182 341 -375 617 -97
138 -99 142 -143 218 -62 107 -128 317 -156 495 -14 95 -16 423 -2 500 43 237
90 388 171 549 234 464 629 784 1135 919 77 21 100 25 229 43 121 17 370 14
473 -6 13 -3 48 -10 79 -15 71 -13 224 -57 266 -76 17 -7 34 -14 37 -14 13 0
179 -81 247 -120 161 -95 374 -280 476 -415 21 -27 43 -56 50 -63 25 -26 128
-200 164 -277 67 -141 123 -316 144 -445 3 -19 8 -42 10 -50 16 -62 22 -323 9
-435 -6 -59 -9 -75 -19 -125 -2 -14 -7 -39 -10 -56 -9 -57 -56 -206 -90 -289
-37 -89 -99 -197 -182 -315 -108 -155 -244 -359 -268 -405 -6 -11 -30 -54 -52
-95 -110 -201 -172 -350 -198 -469 -44 -204 -60 -292 -80 -461 -5 -39 -18
-220 -19 -270 l-1 -45 193 -3 c105 -1 192 1 193 5 1 8 3 44 13 178 15 207 66
489 108 600 50 134 203 408 326 585 133 192 150 217 206 313 139 236 215 471
253 784 10 76 10 347 0 443 -14 144 -18 168 -52 305 -73 290 -195 547 -363
770 -51 67 -153 186 -193 225 -197 189 -368 310 -584 415 -110 54 -299 127
-363 140 -9 2 -48 11 -87 20 -142 34 -211 44 -360 51 -66 3 -125 7 -132 9 -6
2 -13 2 -15 1z"/>
<path d="M3430 4928 c-31 -11 -595 -572 -616 -612 -35 -65 -8 -162 56 -199 44
-26 107 -29 150 -7 19 10 161 146 316 302 297 299 312 318 300 394 -15 91
-120 154 -206 122z"/>
<path d="M3451 4014 c-21 -9 -156 -136 -333 -314 l-299 -299 103 -113 c57 -62
112 -122 123 -134 11 -11 56 -61 100 -109 44 -49 107 -118 139 -152 33 -35 67
-74 75 -86 14 -19 16 -88 17 -547 1 -289 2 -530 3 -535 1 -11 310 -16 312 -6
1 4 2 274 3 601 l1 595 -49 55 c-28 30 -68 75 -90 99 -23 24 -46 49 -51 55
-75 82 -223 244 -233 255 -11 12 17 44 186 215 170 170 201 207 207 239 10 52
-1 101 -32 138 -48 56 -116 72 -182 43z"/>
<path d="M2395 1330 c-118 -6 -154 -25 -181 -97 -28 -72 -7 -138 60 -187 27
-21 33 -21 1209 -24 l1182 -2 45 22 c106 54 112 197 10 265 -26 18 -47 23
-104 23 -643 4 -2146 4 -2221 0z"/>
<path d="M2655 730 c-51 -26 -76 -61 -83 -116 -6 -57 3 -89 36 -123 55 -57 11
-54 893 -55 l817 0 42 28 c101 67 94 213 -14 265 -42 21 -55 21 -847 21 -787
0 -805 0 -844 -20z"/>
</g>
</svg>
